<?xml version="1.0" standalone="no"?>
<svg width="3456" height="2304" xmlns="http://www.w3.org/2000/svg" id="svgvm0"><g transform="translate(5,5)" style="font-family: sans-serif;"><g><g transform="translate(0, 0)"><g transform="translate(0,5)"><rect class="header-box" width="1109.728813559322" height="86" stroke="black" fill="white" rx="5"/><rect class="label-cover" x="8" y="-10" width="34.1953125" height="17.5" fill="white" rx="5"/><text class="header-box-label" x="10" font-size="12" y="3">about</text><g class="header-box-content" transform="translate(5, 0)"><g transform="translate(0, 2.0975609756097526)"><text font-size="12"><tspan x="4" y="23.426829268292682">Volt Typhoon</tspan></text><line x1="0" x2="1099.728813559322" y1="39.853658536585364" y2="39.853658536585364" stroke="#dddddd"/></g><g transform="translate(0, 44.048780487804876)"><text font-size="12"><tspan x="4" y="23.426829268292682">VT Attack on US Infrastructure</tspan></text></g></g></g></g><g transform="translate(1168.135593220339, 0)"><g transform="translate(0,5)"><rect class="header-box" width="1109.728813559322" height="86" stroke="black" fill="white" rx="5"/><rect class="label-cover" x="8" y="-10" width="43.359375" height="17.5" fill="white" rx="5"/><text class="header-box-label" x="10" font-size="12" y="3">domain</text><g class="header-box-content" transform="translate(5, 0)"><g transform="translate(0, 4.095238095238102)"><text font-size="12"><tspan x="4" y="42.4047619047619">Enterprise ATT&amp;CK v13</tspan></text></g></g></g></g><g transform="translate(2336.271186440678, 0)"><g transform="translate(0,5)"><rect class="header-box" width="1109.728813559322" height="86" stroke="black" fill="white" rx="5"/><rect class="label-cover" x="8" y="-10" width="53.3515625" height="17.5" fill="white" rx="5"/><text class="header-box-label" x="10" font-size="12" y="3">platforms</text><g class="header-box-content" transform="translate(5, 0)"><g transform="translate(0, 4.095238095238102)"><text font-size="12"><tspan x="4" y="42.4047619047619">Linux, macOS, Windows, Network, PRE, Containers, Office 365, SaaS, Google Workspace, IaaS, Azure AD</tspan></text></g></g></g></g></g><g transform="translate(0,97)"><rect class="tactic-header-background" width="3446" height="87.92" fill="#dddddd" stroke="#6B7279"/><g><g class="tactic reconnaissance" transform="translate(4.547473508864641e-15, 0)"><g class="techniques"><g class="technique T1595" transform="translate(0, 87.92)"><rect class="cell" height="87.92" width="240.41860465116278" fill="#6baed6" stroke="#6B7279"/><polygon class="sidebar" transform="translate(0, 87.92)" points="0,0 12,0 12,12" fill="#6B7279" visibility="visible"/><text font-size="12" fill="black"><tspan x="4" y="47.46">Active Scanning</tspan></text></g><g class="technique T1592" transform="translate(0, 351.68)"><rect class="cell" height="87.92" width="240.41860465116278" fill="#6baed6" stroke="#6B7279"/><polygon class="sidebar" transform="translate(0, 87.92)" points="0,0 12,0 12,12" fill="#6B7279" visibility="visible"/><text font-size="12" fill="black"><tspan x="4" y="40.21">Gather</tspan><tspan x="4" y="54.71">Victim Host Information</tspan></text></g><g class="technique T1597" transform="translate(0, 527.52)"><rect class="cell" height="87.92" width="240.41860465116278" fill="#6baed6" stroke="#6B7279"/><polygon class="sidebar" transform="translate(0, 87.92)" points="0,0 12,0 12,12" fill="#6B7279" visibility="visible"/><text font-size="12" fill="black"><tspan x="4" y="47.46">Search Closed Sources</tspan></text></g><g class="technique T1596" transform="translate(0, 703.36)"><rect class="cell" height="87.92" width="240.41860465116278" fill="#6baed6" stroke="#6B7279"/><polygon class="sidebar" transform="translate(0, 87.92)" points="0,0 12,0 12,12" fill="#6B7279" visibility="visible"/><text font-size="12" fill="black"><tspan x="4" y="40.21">Search</tspan><tspan x="4" y="54.71">Open Technical Databases</tspan></text></g></g><g class="subtechniques"><g class="subtechnique T1595.002" transform="translate(15, 175.84)"><rect class="cell" height="87.92" width="225.41860465116278" fill="#6baed6" stroke="#6B7279"/><rect class="cell" height="87.92" width="3" transform="translate(-3, 0)" fill="#6B7279" stroke="#6B7279"/><text font-size="12" fill="black"><tspan x="4" y="47.46">Vulnerability Scanning</tspan></text></g><g class="subtechnique T1595.003" transform="translate(15, 263.76)"><rect class="cell" height="87.92" width="225.41860465116278" fill="#6baed6" stroke="#6B7279"/><rect class="cell" height="87.92" width="3" transform="translate(-3, 0)" fill="#6B7279" stroke="#6B7279"/><text font-size="12" fill="black"><tspan x="4" y="47.46">Wordlist Scanning</tspan></text></g><g class="subtechnique T1592.003" transform="translate(15, 439.6)"><rect class="cell" height="87.92" width="225.41860465116278" fill="#6baed6" stroke="#6B7279"/><rect class="cell" height="87.92" width="3" transform="translate(-3, 0)" fill="#6B7279" stroke="#6B7279"/><text font-size="12" fill="black"><tspan x="4" y="47.46">Firmware</tspan></text></g><g class="subtechnique T1597.001" transform="translate(15, 615.44)"><rect class="cell" height="87.92" width="225.41860465116278" fill="#6baed6" stroke="#6B7279"/><rect class="cell" height="87.92" width="3" transform="translate(-3, 0)" fill="#6B7279" stroke="#6B7279"/><text font-size="12" fill="black"><tspan x="4" y="47.46">Threat Intel Vendors</tspan></text></g><g class="subtechnique T1596.005" transform="translate(15, 791.28)"><rect class="cell" height="87.92" width="225.41860465116278" fill="#6baed6" stroke="#6B7279"/><rect class="cell" height="87.92" width="3" transform="translate(-3, 0)" fill="#6B7279" stroke="#6B7279"/><text font-size="12" fill="black"><tspan x="4" y="47.46">Scan Databases</tspan></text></g></g><g class="tactic-label"><text font-size="12" fill="black" font-weight="bold"><tspan text-anchor="middle" x="120.20930232558139" y="47.46">Reconnaissance</tspan></text></g></g><g class="tactic resource-development" transform="translate(267.1317829457364, 0)"><g class="techniques"><g class="technique T1583" transform="translate(0, 87.92)"><rect class="cell" height="87.92" width="240.41860465116278" fill="#6baed6" stroke="#6B7279"/><polygon class="sidebar" transform="translate(0, 87.92)" points="0,0 12,0 12,12" fill="#6B7279" visibility="visible"/><text font-size="12" fill="black"><tspan x="4" y="47.46">Acquire Infrastructure</tspan></text></g><g class="technique T1584" transform="translate(0, 263.76)"><rect class="cell" height="87.92" width="240.41860465116278" fill="#6baed6" stroke="#6B7279"/><polygon class="sidebar" transform="translate(0, 87.92)" points="0,0 12,0 12,12" fill="#6B7279" visibility="visible"/><text font-size="12" fill="black"><tspan x="4" y="47.46">Compromise Infrastructure</tspan></text></g><g class="technique T1587" transform="translate(0, 439.6)"><rect class="cell" height="87.92" width="240.41860465116278" fill="#6baed6" stroke="#6B7279"/><polygon class="sidebar" transform="translate(0, 87.92)" points="0,0 12,0 12,12" fill="#6B7279" visibility="visible"/><text font-size="12" fill="black"><tspan x="4" y="47.46">Develop Capabilities</tspan></text></g><g class="technique T1588" transform="translate(0, 615.44)"><rect class="cell" height="87.92" width="240.41860465116278" fill="#6baed6" stroke="#6B7279"/><polygon class="sidebar" transform="translate(0, 87.92)" points="0,0 12,0 12,12" fill="#6B7279" visibility="visible"/><text font-size="12" fill="black"><tspan x="4" y="47.46">Obtain Capabilities</tspan></text></g></g><g class="subtechniques"><g class="subtechnique T1583.007" transform="translate(15, 175.84)"><rect class="cell" height="87.92" width="225.41860465116278" fill="#6baed6" stroke="#6B7279"/><rect class="cell" height="87.92" width="3" transform="translate(-3, 0)" fill="#6B7279" stroke="#6B7279"/><text font-size="12" fill="black"><tspan x="4" y="47.46">Serverless</tspan></text></g><g class="subtechnique T1584.007" transform="translate(15, 351.68)"><rect class="cell" height="87.92" width="225.41860465116278" fill="#6baed6" stroke="#6B7279"/><rect class="cell" height="87.92" width="3" transform="translate(-3, 0)" fill="#6B7279" stroke="#6B7279"/><text font-size="12" fill="black"><tspan x="4" y="47.46">Serverless</tspan></text></g><g class="subtechnique T1587.004" transform="translate(15, 527.52)"><rect class="cell" height="87.92" width="225.41860465116278" fill="#6baed6" stroke="#6B7279"/><rect class="cell" height="87.92" width="3" transform="translate(-3, 0)" fill="#6B7279" stroke="#6B7279"/><text font-size="12" fill="black"><tspan x="4" y="47.46">Exploits</tspan></text></g><g class="subtechnique T1588.005" transform="translate(15, 703.36)"><rect class="cell" height="87.92" width="225.41860465116278" fill="#6baed6" stroke="#6B7279"/><rect class="cell" height="87.92" width="3" transform="translate(-3, 0)" fill="#6B7279" stroke="#6B7279"/><text font-size="12" fill="black"><tspan x="4" y="47.46">Exploits</tspan></text></g></g><g class="tactic-label"><text font-size="12" fill="black" font-weight="bold"><tspan text-anchor="middle" x="120.20930232558139" y="47.46">Resource Development</tspan></text></g></g><g class="tactic initial-access" transform="translate(534.2635658914728, 0)"><g class="techniques"><g class="technique T1189" transform="translate(0, 87.92)"><rect class="cell" height="87.92" width="240.41860465116278" fill="#6baed6" stroke="#6B7279"/><polygon class="sidebar" transform="translate(0, 87.92)" points="0,0 12,0 12,0" fill="#6B7279" visibility="hidden"/><text font-size="12" fill="black"><tspan x="4" y="47.46">Drive-by Compromise</tspan></text></g><g class="technique T1190" transform="translate(0, 175.84)"><rect class="cell" height="87.92" width="240.41860465116278" fill="#6baed6" stroke="#6B7279"/><polygon class="sidebar" transform="translate(0, 87.92)" points="0,0 12,0 12,0" fill="#6B7279" visibility="hidden"/><text font-size="12" fill="black"><tspan x="4" y="40.21">Exploit</tspan><tspan x="4" y="54.71">Public-Facing Application</tspan></text></g><g class="technique T1078" transform="translate(0, 263.76)"><rect class="cell" height="87.92" width="240.41860465116278" fill="#6baed6" stroke="#6B7279"/><polygon class="sidebar" transform="translate(0, 87.92)" points="0,0 12,0 12,12" fill="#6B7279" visibility="visible"/><text font-size="12" fill="black"><tspan x="4" y="47.46">Valid Accounts</tspan></text></g></g><g class="subtechniques"><g class="subtechnique T1078.002" transform="translate(15, 351.68)"><rect class="cell" height="87.92" width="225.41860465116278" fill="#6baed6" stroke="#6B7279"/><rect class="cell" height="87.92" width="3" transform="translate(-3, 0)" fill="#6B7279" stroke="#6B7279"/><text font-size="12" fill="black"><tspan x="4" y="47.46">Domain Accounts</tspan></text></g><g class="subtechnique T1078.003" transform="translate(15, 439.6)"><rect class="cell" height="87.92" width="225.41860465116278" fill="#6baed6" stroke="#6B7279"/><rect class="cell" height="87.92" width="3" transform="translate(-3, 0)" fill="#6B7279" stroke="#6B7279"/><text font-size="12" fill="black"><tspan x="4" y="47.46">Local Accounts</tspan></text></g></g><g class="tactic-label"><text font-size="12" fill="black" font-weight="bold"><tspan text-anchor="middle" x="120.20930232558139" y="47.46">Initial Access</tspan></text></g></g><g class="tactic execution" transform="translate(801.3953488372092, 0)"><g class="techniques"><g class="technique T1059" transform="translate(0, 87.92)"><rect class="cell" height="87.92" width="240.41860465116278" fill="#6baed6" stroke="#6B7279"/><polygon class="sidebar" transform="translate(0, 87.92)" points="0,0 12,0 12,12" fill="#6B7279" visibility="visible"/><text font-size="12" fill="black"><tspan x="4" y="40.21">Command</tspan><tspan x="4" y="54.71">and Scripting Interpreter</tspan></text></g><g class="technique T1047" transform="translate(0, 263.76)"><rect class="cell" height="87.92" width="240.41860465116278" fill="#6baed6" stroke="#6B7279"/><polygon class="sidebar" transform="translate(0, 87.92)" points="0,0 12,0 12,0" fill="#6B7279" visibility="hidden"/><text font-size="12" fill="black"><tspan x="4" y="40.21">Windows</tspan><tspan x="4" y="54.71">Management Instrumentation</tspan></text></g></g><g class="subtechniques"><g class="subtechnique T1059.003" transform="translate(15, 175.84)"><rect class="cell" height="87.92" width="225.41860465116278" fill="#6baed6" stroke="#6B7279"/><rect class="cell" height="87.92" width="3" transform="translate(-3, 0)" fill="#6B7279" stroke="#6B7279"/><text font-size="12" fill="black"><tspan x="4" y="47.46">Windows Command Shell</tspan></text></g></g><g class="tactic-label"><text font-size="12" fill="black" font-weight="bold"><tspan text-anchor="middle" x="120.20930232558139" y="47.46">Execution</tspan></text></g></g><g class="tactic persistence" transform="translate(1068.5271317829456, 0)"><g class="techniques"><g class="technique T1197" transform="translate(0, 87.92)"><rect class="cell" height="87.92" width="240.41860465116278" fill="#6baed6" stroke="#6B7279"/><polygon class="sidebar" transform="translate(0, 87.92)" points="0,0 12,0 12,0" fill="#6B7279" visibility="hidden"/><text font-size="12" fill="black"><tspan x="4" y="47.46">BITS Jobs</tspan></text></g><g class="technique T1505" transform="translate(0, 175.84)"><rect class="cell" height="87.92" width="240.41860465116278" fill="#6baed6" stroke="#6B7279"/><polygon class="sidebar" transform="translate(0, 87.92)" points="0,0 12,0 12,12" fill="#6B7279" visibility="visible"/><text font-size="12" fill="black"><tspan x="4" y="47.46">Server Software Component</tspan></text></g><g class="technique T1078" transform="translate(0, 351.68)"><rect class="cell" height="87.92" width="240.41860465116278" fill="#6baed6" stroke="#6B7279"/><polygon class="sidebar" transform="translate(0, 87.92)" points="0,0 12,0 12,12" fill="#6B7279" visibility="visible"/><text font-size="12" fill="black"><tspan x="4" y="47.46">Valid Accounts</tspan></text></g></g><g class="subtechniques"><g class="subtechnique T1505.003" transform="translate(15, 263.76)"><rect class="cell" height="87.92" width="225.41860465116278" fill="#6baed6" stroke="#6B7279"/><rect class="cell" height="87.92" width="3" transform="translate(-3, 0)" fill="#6B7279" stroke="#6B7279"/><text font-size="12" fill="black"><tspan x="4" y="47.46">Web Shell</tspan></text></g><g class="subtechnique T1078.002" transform="translate(15, 439.6)"><rect class="cell" height="87.92" width="225.41860465116278" fill="#6baed6" stroke="#6B7279"/><rect class="cell" height="87.92" width="3" transform="translate(-3, 0)" fill="#6B7279" stroke="#6B7279"/><text font-size="12" fill="black"><tspan x="4" y="47.46">Domain Accounts</tspan></text></g><g class="subtechnique T1078.003" transform="translate(15, 527.52)"><rect class="cell" height="87.92" width="225.41860465116278" fill="#6baed6" stroke="#6B7279"/><rect class="cell" height="87.92" width="3" transform="translate(-3, 0)" fill="#6B7279" stroke="#6B7279"/><text font-size="12" fill="black"><tspan x="4" y="47.46">Local Accounts</tspan></text></g></g><g class="tactic-label"><text font-size="12" fill="black" font-weight="bold"><tspan text-anchor="middle" x="120.20930232558139" y="47.46">Persistence</tspan></text></g></g><g class="tactic privilege-escalation" transform="translate(1335.658914728682, 0)"><g class="techniques"><g class="technique T1548" transform="translate(0, 87.92)"><rect class="cell" height="87.92" width="240.41860465116278" fill="#6baed6" stroke="#6B7279"/><polygon class="sidebar" transform="translate(0, 87.92)" points="0,0 12,0 12,12" fill="#6B7279" visibility="visible"/><text font-size="12" fill="black"><tspan x="4" y="40.21">Abuse</tspan><tspan x="4" y="54.71">Elevation Control Mechanism</tspan></text></g><g class="technique T1078" transform="translate(0, 263.76)"><rect class="cell" height="87.92" width="240.41860465116278" fill="#6baed6" stroke="#6B7279"/><polygon class="sidebar" transform="translate(0, 87.92)" points="0,0 12,0 12,12" fill="#6B7279" visibility="visible"/><text font-size="12" fill="black"><tspan x="4" y="47.46">Valid Accounts</tspan></text></g></g><g class="subtechniques"><g class="subtechnique T1548.001" transform="translate(15, 175.84)"><rect class="cell" height="87.92" width="225.41860465116278" fill="#6baed6" stroke="#6B7279"/><rect class="cell" height="87.92" width="3" transform="translate(-3, 0)" fill="#6B7279" stroke="#6B7279"/><text font-size="12" fill="black"><tspan x="4" y="47.46">Setuid and Setgid</tspan></text></g><g class="subtechnique T1078.002" transform="translate(15, 351.68)"><rect class="cell" height="87.92" width="225.41860465116278" fill="#6baed6" stroke="#6B7279"/><rect class="cell" height="87.92" width="3" transform="translate(-3, 0)" fill="#6B7279" stroke="#6B7279"/><text font-size="12" fill="black"><tspan x="4" y="47.46">Domain Accounts</tspan></text></g><g class="subtechnique T1078.003" transform="translate(15, 439.6)"><rect class="cell" height="87.92" width="225.41860465116278" fill="#6baed6" stroke="#6B7279"/><rect class="cell" height="87.92" width="3" transform="translate(-3, 0)" fill="#6B7279" stroke="#6B7279"/><text font-size="12" fill="black"><tspan x="4" y="47.46">Local Accounts</tspan></text></g></g><g class="tactic-label"><text font-size="12" fill="black" font-weight="bold"><tspan text-anchor="middle" x="120.20930232558139" y="47.46">Privilege Escalation</tspan></text></g></g><g class="tactic defense-evasion" transform="translate(1602.7906976744184, 0)"><g class="techniques"><g class="technique T1548" transform="translate(0, 87.92)"><rect class="cell" height="87.92" width="240.41860465116278" fill="#6baed6" stroke="#6B7279"/><polygon class="sidebar" transform="translate(0, 87.92)" points="0,0 12,0 12,12" fill="#6B7279" visibility="visible"/><text font-size="12" fill="black"><tspan x="4" y="40.21">Abuse</tspan><tspan x="4" y="54.71">Elevation Control Mechanism</tspan></text></g><g class="technique T1197" transform="translate(0, 263.76)"><rect class="cell" height="87.92" width="240.41860465116278" fill="#6baed6" stroke="#6B7279"/><polygon class="sidebar" transform="translate(0, 87.92)" points="0,0 12,0 12,0" fill="#6B7279" visibility="hidden"/><text font-size="12" fill="black"><tspan x="4" y="47.46">BITS Jobs</tspan></text></g><g class="technique T1562" transform="translate(0, 351.68)"><rect class="cell" height="87.92" width="240.41860465116278" fill="#6baed6" stroke="#6B7279"/><polygon class="sidebar" transform="translate(0, 87.92)" points="0,0 12,0 12,12" fill="#6B7279" visibility="visible"/><text font-size="12" fill="black"><tspan x="4" y="47.46">Impair Defenses</tspan></text></g><g class="technique T1070" transform="translate(0, 527.52)"><rect class="cell" height="87.92" width="240.41860465116278" fill="#6baed6" stroke="#6B7279"/><polygon class="sidebar" transform="translate(0, 87.92)" points="0,0 12,0 12,12" fill="#6B7279" visibility="visible"/><text font-size="12" fill="black"><tspan x="4" y="47.46">Indicator Removal</tspan></text></g><g class="technique T1601" transform="translate(0, 1406.72)"><rect class="cell" height="87.92" width="240.41860465116278" fill="#6baed6" stroke="#6B7279"/><polygon class="sidebar" transform="translate(0, 87.92)" points="0,0 12,0 12,12" fill="#6B7279" visibility="visible"/><text font-size="12" fill="black"><tspan x="4" y="47.46">Modify System Image</tspan></text></g><g class="technique T1599" transform="translate(0, 1582.56)"><rect class="cell" height="87.92" width="240.41860465116278" fill="#6baed6" stroke="#6B7279"/><polygon class="sidebar" transform="translate(0, 87.92)" points="0,0 12,0 12,0" fill="#6B7279" visibility="visible"/><text font-size="12" fill="black"><tspan x="4" y="47.46">Network Boundary Bridging</tspan></text></g><g class="technique T1550" transform="translate(0, 1670.48)"><rect class="cell" height="87.92" width="240.41860465116278" fill="#6baed6" stroke="#6B7279"/><polygon class="sidebar" transform="translate(0, 87.92)" points="0,0 12,0 12,12" fill="#6B7279" visibility="visible"/><text font-size="12" fill="black"><tspan x="4" y="40.21">Use Alternate</tspan><tspan x="4" y="54.71">Authentication Material</tspan></text></g><g class="technique T1078" transform="translate(0, 1846.32)"><rect class="cell" height="87.92" width="240.41860465116278" fill="#6baed6" stroke="#6B7279"/><polygon class="sidebar" transform="translate(0, 87.92)" points="0,0 12,0 12,12" fill="#6B7279" visibility="visible"/><text font-size="12" fill="black"><tspan x="4" y="47.46">Valid Accounts</tspan></text></g><g class="technique T1220" transform="translate(0, 2110.08)"><rect class="cell" height="87.92" width="240.41860465116278" fill="#6baed6" stroke="#6B7279"/><polygon class="sidebar" transform="translate(0, 87.92)" points="0,0 12,0 12,0" fill="#6B7279" visibility="hidden"/><text font-size="12" fill="black"><tspan x="4" y="47.46">XSL Script Processing</tspan></text></g></g><g class="subtechniques"><g class="subtechnique T1548.001" transform="translate(15, 175.84)"><rect class="cell" height="87.92" width="225.41860465116278" fill="#6baed6" stroke="#6B7279"/><rect class="cell" height="87.92" width="3" transform="translate(-3, 0)" fill="#6B7279" stroke="#6B7279"/><text font-size="12" fill="black"><tspan x="4" y="47.46">Setuid and Setgid</tspan></text></g><g class="subtechnique T1562.006" transform="translate(15, 439.6)"><rect class="cell" height="87.92" width="225.41860465116278" fill="#6baed6" stroke="#6B7279"/><rect class="cell" height="87.92" width="3" transform="translate(-3, 0)" fill="#6B7279" stroke="#6B7279"/><text font-size="12" fill="black"><tspan x="4" y="47.46">Indicator Blocking</tspan></text></g><g class="subtechnique T1070.003" transform="translate(15, 615.44)"><rect class="cell" height="87.92" width="225.41860465116278" fill="#6baed6" stroke="#6B7279"/><rect class="cell" height="87.92" width="3" transform="translate(-3, 0)" fill="#6B7279" stroke="#6B7279"/><text font-size="12" fill="black"><tspan x="4" y="47.46">Clear Command History</tspan></text></g><g class="subtechnique T1070.002" transform="translate(15, 703.36)"><rect class="cell" height="87.92" width="225.41860465116278" fill="#6baed6" stroke="#6B7279"/><rect class="cell" height="87.92" width="3" transform="translate(-3, 0)" fill="#6B7279" stroke="#6B7279"/><text font-size="12" fill="black"><tspan x="4" y="40.21">Clear</tspan><tspan x="4" y="54.71">Linux or Mac System Logs</tspan></text></g><g class="subtechnique T1070.008" transform="translate(15, 791.28)"><rect class="cell" height="87.92" width="225.41860465116278" fill="#6baed6" stroke="#6B7279"/><rect class="cell" height="87.92" width="3" transform="translate(-3, 0)" fill="#6B7279" stroke="#6B7279"/><text font-size="12" fill="black"><tspan x="4" y="47.46">Clear Mailbox Data</tspan></text></g><g class="subtechnique T1070.007" transform="translate(15, 879.2)"><rect class="cell" height="87.92" width="225.41860465116278" fill="#6baed6" stroke="#6B7279"/><rect class="cell" height="87.92" width="3" transform="translate(-3, 0)" fill="#6B7279" stroke="#6B7279"/><text font-size="12" fill="black"><tspan x="4" y="40.21">Clear Network Connection</tspan><tspan x="4" y="54.71">History and Configurations</tspan></text></g><g class="subtechnique T1070.009" transform="translate(15, 967.12)"><rect class="cell" height="87.92" width="225.41860465116278" fill="#6baed6" stroke="#6B7279"/><rect class="cell" height="87.92" width="3" transform="translate(-3, 0)" fill="#6B7279" stroke="#6B7279"/><text font-size="12" fill="black"><tspan x="4" y="47.46">Clear Persistence</tspan></text></g><g class="subtechnique T1070.001" transform="translate(15, 1055.04)"><rect class="cell" height="87.92" width="225.41860465116278" fill="#6baed6" stroke="#6B7279"/><rect class="cell" height="87.92" width="3" transform="translate(-3, 0)" fill="#6B7279" stroke="#6B7279"/><text font-size="12" fill="black"><tspan x="4" y="47.46">Clear Windows Event Logs</tspan></text></g><g class="subtechnique T1070.004" transform="translate(15, 1142.96)"><rect class="cell" height="87.92" width="225.41860465116278" fill="#6baed6" stroke="#6B7279"/><rect class="cell" height="87.92" width="3" transform="translate(-3, 0)" fill="#6B7279" stroke="#6B7279"/><text font-size="12" fill="black"><tspan x="4" y="47.46">File Deletion</tspan></text></g><g class="subtechnique T1070.005" transform="translate(15, 1230.88)"><rect class="cell" height="87.92" width="225.41860465116278" fill="#6baed6" stroke="#6B7279"/><rect class="cell" height="87.92" width="3" transform="translate(-3, 0)" fill="#6B7279" stroke="#6B7279"/><text font-size="12" fill="black"><tspan x="4" y="40.21">Network</tspan><tspan x="4" y="54.71">Share Connection Removal</tspan></text></g><g class="subtechnique T1070.006" transform="translate(15, 1318.8)"><rect class="cell" height="87.92" width="225.41860465116278" fill="#6baed6" stroke="#6B7279"/><rect class="cell" height="87.92" width="3" transform="translate(-3, 0)" fill="#6B7279" stroke="#6B7279"/><text font-size="12" fill="black"><tspan x="4" y="47.46">Timestomp</tspan></text></g><g class="subtechnique T1601.001" transform="translate(15, 1494.64)"><rect class="cell" height="87.92" width="225.41860465116278" fill="#6baed6" stroke="#6B7279"/><rect class="cell" height="87.92" width="3" transform="translate(-3, 0)" fill="#6B7279" stroke="#6B7279"/><text font-size="12" fill="black"><tspan x="4" y="47.46">Patch System Image</tspan></text></g><g class="subtechnique T1550.003" transform="translate(15, 1758.4)"><rect class="cell" height="87.92" width="225.41860465116278" fill="#6baed6" stroke="#6B7279"/><rect class="cell" height="87.92" width="3" transform="translate(-3, 0)" fill="#6B7279" stroke="#6B7279"/><text font-size="12" fill="black"><tspan x="4" y="47.46">Pass the Ticket</tspan></text></g><g class="subtechnique T1078.002" transform="translate(15, 1934.24)"><rect class="cell" height="87.92" width="225.41860465116278" fill="#6baed6" stroke="#6B7279"/><rect class="cell" height="87.92" width="3" transform="translate(-3, 0)" fill="#6B7279" stroke="#6B7279"/><text font-size="12" fill="black"><tspan x="4" y="47.46">Domain Accounts</tspan></text></g><g class="subtechnique T1078.003" transform="translate(15, 2022.16)"><rect class="cell" height="87.92" width="225.41860465116278" fill="#6baed6" stroke="#6B7279"/><rect class="cell" height="87.92" width="3" transform="translate(-3, 0)" fill="#6B7279" stroke="#6B7279"/><text font-size="12" fill="black"><tspan x="4" y="47.46">Local Accounts</tspan></text></g></g><g class="tactic-label"><text font-size="12" fill="black" font-weight="bold"><tspan text-anchor="middle" x="120.20930232558139" y="47.46">Defense Evasion</tspan></text></g></g><g class="tactic credential-access" transform="translate(1869.9224806201548, 0)"><g class="techniques"><g class="technique T1110" transform="translate(0, 87.92)"><rect class="cell" height="87.92" width="240.41860465116278" fill="#6baed6" stroke="#6B7279"/><polygon class="sidebar" transform="translate(0, 87.92)" points="0,0 12,0 12,12" fill="#6B7279" visibility="visible"/><text font-size="12" fill="black"><tspan x="4" y="47.46">Brute Force</tspan></text></g><g class="technique T1555" transform="translate(0, 263.76)"><rect class="cell" height="87.92" width="240.41860465116278" fill="#6baed6" stroke="#6B7279"/><polygon class="sidebar" transform="translate(0, 87.92)" points="0,0 12,0 12,12" fill="#6B7279" visibility="visible"/><text font-size="12" fill="black"><tspan x="4" y="40.21">Credentials</tspan><tspan x="4" y="54.71">from Password Stores</tspan></text></g><g class="technique T1056" transform="translate(0, 791.28)"><rect class="cell" height="87.92" width="240.41860465116278" fill="#6baed6" stroke="#6B7279"/><polygon class="sidebar" transform="translate(0, 87.92)" points="0,0 12,0 12,12" fill="#6B7279" visibility="visible"/><text font-size="12" fill="black"><tspan x="4" y="47.46">Input Capture</tspan></text></g><g class="technique T1003" transform="translate(0, 967.12)"><rect class="cell" height="87.92" width="240.41860465116278" fill="#6baed6" stroke="#6B7279"/><polygon class="sidebar" transform="translate(0, 87.92)" points="0,0 12,0 12,12" fill="#6B7279" visibility="visible"/><text font-size="12" fill="black"><tspan x="4" y="47.46">OS Credential Dumping</tspan></text></g><g class="technique T1558" transform="translate(0, 1758.4)"><rect class="cell" height="87.92" width="240.41860465116278" fill="#6baed6" stroke="#6B7279"/><polygon class="sidebar" transform="translate(0, 87.92)" points="0,0 12,0 12,12" fill="#6B7279" visibility="visible"/><text font-size="12" fill="black"><tspan x="4" y="40.21">Steal</tspan><tspan x="4" y="54.71">or Forge Kerberos Tickets</tspan></text></g><g class="technique T1552" transform="translate(0, 2022.16)"><rect class="cell" height="87.92" width="240.41860465116278" fill="#6baed6" stroke="#6B7279"/><polygon class="sidebar" transform="translate(0, 87.92)" points="0,0 12,0 12,12" fill="#6B7279" visibility="visible"/><text font-size="12" fill="black"><tspan x="4" y="47.46">Unsecured Credentials</tspan></text></g></g><g class="subtechniques"><g class="subtechnique T1110.002" transform="translate(15, 175.84)"><rect class="cell" height="87.92" width="225.41860465116278" fill="#6baed6" stroke="#6B7279"/><rect class="cell" height="87.92" width="3" transform="translate(-3, 0)" fill="#6B7279" stroke="#6B7279"/><text font-size="12" fill="black"><tspan x="4" y="47.46">Password Cracking</tspan></text></g><g class="subtechnique T1555.003" transform="translate(15, 351.68)"><rect class="cell" height="87.92" width="225.41860465116278" fill="#6baed6" stroke="#6B7279"/><rect class="cell" height="87.92" width="3" transform="translate(-3, 0)" fill="#6B7279" stroke="#6B7279"/><text font-size="12" fill="black"><tspan x="4" y="40.21">Credentials</tspan><tspan x="4" y="54.71">from Web Browsers</tspan></text></g><g class="subtechnique T1555.001" transform="translate(15, 439.6)"><rect class="cell" height="87.92" width="225.41860465116278" fill="#6baed6" stroke="#6B7279"/><rect class="cell" height="87.92" width="3" transform="translate(-3, 0)" fill="#6B7279" stroke="#6B7279"/><text font-size="12" fill="black"><tspan x="4" y="47.46">Keychain</tspan></text></g><g class="subtechnique T1555.005" transform="translate(15, 527.52)"><rect class="cell" height="87.92" width="225.41860465116278" fill="#6baed6" stroke="#6B7279"/><rect class="cell" height="87.92" width="3" transform="translate(-3, 0)" fill="#6B7279" stroke="#6B7279"/><text font-size="12" fill="black"><tspan x="4" y="47.46">Password Managers</tspan></text></g><g class="subtechnique T1555.002" transform="translate(15, 615.44)"><rect class="cell" height="87.92" width="225.41860465116278" fill="#6baed6" stroke="#6B7279"/><rect class="cell" height="87.92" width="3" transform="translate(-3, 0)" fill="#6B7279" stroke="#6B7279"/><text font-size="12" fill="black"><tspan x="4" y="47.46">Securityd Memory</tspan></text></g><g class="subtechnique T1555.004" transform="translate(15, 703.36)"><rect class="cell" height="87.92" width="225.41860465116278" fill="#6baed6" stroke="#6B7279"/><rect class="cell" height="87.92" width="3" transform="translate(-3, 0)" fill="#6B7279" stroke="#6B7279"/><text font-size="12" fill="black"><tspan x="4" y="47.46">Windows Credential Manager</tspan></text></g><g class="subtechnique T1056.001" transform="translate(15, 879.2)"><rect class="cell" height="87.92" width="225.41860465116278" fill="#6baed6" stroke="#6B7279"/><rect class="cell" height="87.92" width="3" transform="translate(-3, 0)" fill="#6B7279" stroke="#6B7279"/><text font-size="12" fill="black"><tspan x="4" y="47.46">Keylogging</tspan></text></g><g class="subtechnique T1003.008" transform="translate(15, 1055.04)"><rect class="cell" height="87.92" width="225.41860465116278" fill="#6baed6" stroke="#6B7279"/><rect class="cell" height="87.92" width="3" transform="translate(-3, 0)" fill="#6B7279" stroke="#6B7279"/><text font-size="12" fill="black"><tspan x="4" y="40.21">/etc/passwd</tspan><tspan x="4" y="54.71">and /etc/shadow</tspan></text></g><g class="subtechnique T1003.005" transform="translate(15, 1142.96)"><rect class="cell" height="87.92" width="225.41860465116278" fill="#6baed6" stroke="#6B7279"/><rect class="cell" height="87.92" width="3" transform="translate(-3, 0)" fill="#6B7279" stroke="#6B7279"/><text font-size="12" fill="black"><tspan x="4" y="47.46">Cached Domain Credentials</tspan></text></g><g class="subtechnique T1003.006" transform="translate(15, 1230.88)"><rect class="cell" height="87.92" width="225.41860465116278" fill="#6baed6" stroke="#6B7279"/><rect class="cell" height="87.92" width="3" transform="translate(-3, 0)" fill="#6B7279" stroke="#6B7279"/><text font-size="12" fill="black"><tspan x="4" y="47.46">DCSync</tspan></text></g><g class="subtechnique T1003.004" transform="translate(15, 1318.8)"><rect class="cell" height="87.92" width="225.41860465116278" fill="#6baed6" stroke="#6B7279"/><rect class="cell" height="87.92" width="3" transform="translate(-3, 0)" fill="#6B7279" stroke="#6B7279"/><text font-size="12" fill="black"><tspan x="4" y="47.46">LSA Secrets</tspan></text></g><g class="subtechnique T1003.001" transform="translate(15, 1406.72)"><rect class="cell" height="87.92" width="225.41860465116278" fill="#6baed6" stroke="#6B7279"/><rect class="cell" height="87.92" width="3" transform="translate(-3, 0)" fill="#6B7279" stroke="#6B7279"/><text font-size="12" fill="black"><tspan x="4" y="47.46">LSASS Memory</tspan></text></g><g class="subtechnique T1003.003" transform="translate(15, 1494.64)"><rect class="cell" height="87.92" width="225.41860465116278" fill="#6baed6" stroke="#6B7279"/><rect class="cell" height="87.92" width="3" transform="translate(-3, 0)" fill="#6B7279" stroke="#6B7279"/><text font-size="12" fill="black"><tspan x="4" y="47.46">NTDS</tspan></text></g><g class="subtechnique T1003.007" transform="translate(15, 1582.56)"><rect class="cell" height="87.92" width="225.41860465116278" fill="#6baed6" stroke="#6B7279"/><rect class="cell" height="87.92" width="3" transform="translate(-3, 0)" fill="#6B7279" stroke="#6B7279"/><text font-size="12" fill="black"><tspan x="4" y="47.46">Proc Filesystem</tspan></text></g><g class="subtechnique T1003.002" transform="translate(15, 1670.48)"><rect class="cell" height="87.92" width="225.41860465116278" fill="#6baed6" stroke="#6B7279"/><rect class="cell" height="87.92" width="3" transform="translate(-3, 0)" fill="#6B7279" stroke="#6B7279"/><text font-size="12" fill="black"><tspan x="4" y="47.46">Security Account Manager</tspan></text></g><g class="subtechnique T1558.001" transform="translate(15, 1846.32)"><rect class="cell" height="87.92" width="225.41860465116278" fill="#6baed6" stroke="#6B7279"/><rect class="cell" height="87.92" width="3" transform="translate(-3, 0)" fill="#6B7279" stroke="#6B7279"/><text font-size="12" fill="black"><tspan x="4" y="47.46">Golden Ticket</tspan></text></g><g class="subtechnique T1558.002" transform="translate(15, 1934.24)"><rect class="cell" height="87.92" width="225.41860465116278" fill="#6baed6" stroke="#6B7279"/><rect class="cell" height="87.92" width="3" transform="translate(-3, 0)" fill="#6B7279" stroke="#6B7279"/><text font-size="12" fill="black"><tspan x="4" y="47.46">Silver Ticket</tspan></text></g><g class="subtechnique T1552.001" transform="translate(15, 2110.08)"><rect class="cell" height="87.92" width="225.41860465116278" fill="#6baed6" stroke="#6B7279"/><rect class="cell" height="87.92" width="3" transform="translate(-3, 0)" fill="#6B7279" stroke="#6B7279"/><text font-size="12" fill="black"><tspan x="4" y="47.46">Credentials In Files</tspan></text></g></g><g class="tactic-label"><text font-size="12" fill="black" font-weight="bold"><tspan text-anchor="middle" x="120.20930232558139" y="47.46">Credential Access</tspan></text></g></g><g class="tactic discovery" transform="translate(2137.0542635658912, 0)"><g class="techniques"><g class="technique T1619" transform="translate(0, 87.92)"><rect class="cell" height="87.92" width="240.41860465116278" fill="#6baed6" stroke="#6B7279"/><polygon class="sidebar" transform="translate(0, 87.92)" points="0,0 12,0 12,0" fill="#6B7279" visibility="hidden"/><text font-size="12" fill="black"><tspan x="4" y="40.21">Cloud</tspan><tspan x="4" y="54.71">Storage Object Discovery</tspan></text></g><g class="technique T1083" transform="translate(0, 175.84)"><rect class="cell" height="87.92" width="240.41860465116278" fill="#6baed6" stroke="#6B7279"/><polygon class="sidebar" transform="translate(0, 87.92)" points="0,0 12,0 12,0" fill="#6B7279" visibility="hidden"/><text font-size="12" fill="black"><tspan x="4" y="47.46">File and Directory Discovery</tspan></text></g><g class="technique T1069" transform="translate(0, 263.76)"><rect class="cell" height="87.92" width="240.41860465116278" fill="#6baed6" stroke="#6B7279"/><polygon class="sidebar" transform="translate(0, 87.92)" points="0,0 12,0 12,12" fill="#6B7279" visibility="visible"/><text font-size="12" fill="black"><tspan x="4" y="47.46">Permission Groups Discovery</tspan></text></g><g class="technique T1082" transform="translate(0, 527.52)"><rect class="cell" height="87.92" width="240.41860465116278" fill="#6baed6" stroke="#6B7279"/><polygon class="sidebar" transform="translate(0, 87.92)" points="0,0 12,0 12,0" fill="#6B7279" visibility="hidden"/><text font-size="12" fill="black"><tspan x="4" y="47.46">System Information Discovery</tspan></text></g><g class="technique T1016" transform="translate(0, 615.44)"><rect class="cell" height="87.92" width="240.41860465116278" fill="#6baed6" stroke="#6B7279"/><polygon class="sidebar" transform="translate(0, 87.92)" points="0,0 12,0 12,12" fill="#6B7279" visibility="visible"/><text font-size="12" fill="black"><tspan x="4" y="40.21">System Network</tspan><tspan x="4" y="54.71">Configuration Discovery</tspan></text></g><g class="technique T1033" transform="translate(0, 791.28)"><rect class="cell" height="87.92" width="240.41860465116278" fill="#6baed6" stroke="#6B7279"/><polygon class="sidebar" transform="translate(0, 87.92)" points="0,0 12,0 12,0" fill="#6B7279" visibility="hidden"/><text font-size="12" fill="black"><tspan x="4" y="47.46">System Owner/User Discovery</tspan></text></g></g><g class="subtechniques"><g class="subtechnique T1069.002" transform="translate(15, 351.68)"><rect class="cell" height="87.92" width="225.41860465116278" fill="#6baed6" stroke="#6B7279"/><rect class="cell" height="87.92" width="3" transform="translate(-3, 0)" fill="#6B7279" stroke="#6B7279"/><text font-size="12" fill="black"><tspan x="4" y="47.46">Domain Groups</tspan></text></g><g class="subtechnique T1069.001" transform="translate(15, 439.6)"><rect class="cell" height="87.92" width="225.41860465116278" fill="#6baed6" stroke="#6B7279"/><rect class="cell" height="87.92" width="3" transform="translate(-3, 0)" fill="#6B7279" stroke="#6B7279"/><text font-size="12" fill="black"><tspan x="4" y="47.46">Local Groups</tspan></text></g><g class="subtechnique T1016.001" transform="translate(15, 703.36)"><rect class="cell" height="87.92" width="225.41860465116278" fill="#6baed6" stroke="#6B7279"/><rect class="cell" height="87.92" width="3" transform="translate(-3, 0)" fill="#6B7279" stroke="#6B7279"/><text font-size="12" fill="black"><tspan x="4" y="40.21">Internet</tspan><tspan x="4" y="54.71">Connection Discovery</tspan></text></g></g><g class="tactic-label"><text font-size="12" fill="black" font-weight="bold"><tspan text-anchor="middle" x="120.20930232558139" y="47.46">Discovery</tspan></text></g></g><g class="tactic lateral-movement" transform="translate(2404.186046511628, 0)"><g class="techniques"><g class="technique T1021" transform="translate(0, 87.92)"><rect class="cell" height="87.92" width="240.41860465116278" fill="#6baed6" stroke="#6B7279"/><polygon class="sidebar" transform="translate(0, 87.92)" points="0,0 12,0 12,12" fill="#6B7279" visibility="visible"/><text font-size="12" fill="black"><tspan x="4" y="47.46">Remote Services</tspan></text></g><g class="technique T1550" transform="translate(0, 439.6)"><rect class="cell" height="87.92" width="240.41860465116278" fill="#6baed6" stroke="#6B7279"/><polygon class="sidebar" transform="translate(0, 87.92)" points="0,0 12,0 12,12" fill="#6B7279" visibility="visible"/><text font-size="12" fill="black"><tspan x="4" y="40.21">Use Alternate</tspan><tspan x="4" y="54.71">Authentication Material</tspan></text></g></g><g class="subtechniques"><g class="subtechnique T1021.003" transform="translate(15, 175.84)"><rect class="cell" height="87.92" width="225.41860465116278" fill="#6baed6" stroke="#6B7279"/><rect class="cell" height="87.92" width="3" transform="translate(-3, 0)" fill="#6B7279" stroke="#6B7279"/><text font-size="12" fill="black"><tspan x="4" y="40.21">Distributed</tspan><tspan x="4" y="54.71">Component Object Model</tspan></text></g><g class="subtechnique T1021.002" transform="translate(15, 263.76)"><rect class="cell" height="87.92" width="225.41860465116278" fill="#6baed6" stroke="#6B7279"/><rect class="cell" height="87.92" width="3" transform="translate(-3, 0)" fill="#6B7279" stroke="#6B7279"/><text font-size="12" fill="black"><tspan x="4" y="47.46">SMB/Windows Admin Shares</tspan></text></g><g class="subtechnique T1021.006" transform="translate(15, 351.68)"><rect class="cell" height="87.92" width="225.41860465116278" fill="#6baed6" stroke="#6B7279"/><rect class="cell" height="87.92" width="3" transform="translate(-3, 0)" fill="#6B7279" stroke="#6B7279"/><text font-size="12" fill="black"><tspan x="4" y="47.46">Windows Remote Management</tspan></text></g><g class="subtechnique T1550.003" transform="translate(15, 527.52)"><rect class="cell" height="87.92" width="225.41860465116278" fill="#6baed6" stroke="#6B7279"/><rect class="cell" height="87.92" width="3" transform="translate(-3, 0)" fill="#6B7279" stroke="#6B7279"/><text font-size="12" fill="black"><tspan x="4" y="47.46">Pass the Ticket</tspan></text></g></g><g class="tactic-label"><text font-size="12" fill="black" font-weight="bold"><tspan text-anchor="middle" x="120.20930232558139" y="47.46">Lateral Movement</tspan></text></g></g><g class="tactic collection" transform="translate(2671.317829457364, 0)"><g class="techniques"><g class="technique T1119" transform="translate(0, 87.92)"><rect class="cell" height="87.92" width="240.41860465116278" fill="#6baed6" stroke="#6B7279"/><polygon class="sidebar" transform="translate(0, 87.92)" points="0,0 12,0 12,0" fill="#6B7279" visibility="hidden"/><text font-size="12" fill="black"><tspan x="4" y="47.46">Automated Collection</tspan></text></g><g class="technique T1056" transform="translate(0, 175.84)"><rect class="cell" height="87.92" width="240.41860465116278" fill="#6baed6" stroke="#6B7279"/><polygon class="sidebar" transform="translate(0, 87.92)" points="0,0 12,0 12,12" fill="#6B7279" visibility="visible"/><text font-size="12" fill="black"><tspan x="4" y="47.46">Input Capture</tspan></text></g></g><g class="subtechniques"><g class="subtechnique T1056.001" transform="translate(15, 263.76)"><rect class="cell" height="87.92" width="225.41860465116278" fill="#6baed6" stroke="#6B7279"/><rect class="cell" height="87.92" width="3" transform="translate(-3, 0)" fill="#6B7279" stroke="#6B7279"/><text font-size="12" fill="black"><tspan x="4" y="47.46">Keylogging</tspan></text></g></g><g class="tactic-label"><text font-size="12" fill="black" font-weight="bold"><tspan text-anchor="middle" x="120.20930232558139" y="47.46">Collection</tspan></text></g></g><g class="tactic command-and-control" transform="translate(2938.4496124031, 0)"><g class="techniques"><g class="technique T1572" transform="translate(0, 87.92)"><rect class="cell" height="87.92" width="240.41860465116278" fill="#6baed6" stroke="#6B7279"/><polygon class="sidebar" transform="translate(0, 87.92)" points="0,0 12,0 12,0" fill="#6B7279" visibility="hidden"/><text font-size="12" fill="black"><tspan x="4" y="47.46">Protocol Tunneling</tspan></text></g><g class="technique T1090" transform="translate(0, 175.84)"><rect class="cell" height="87.92" width="240.41860465116278" fill="#6baed6" stroke="#6B7279"/><polygon class="sidebar" transform="translate(0, 87.92)" points="0,0 12,0 12,12" fill="#6B7279" visibility="visible"/><text font-size="12" fill="black"><tspan x="4" y="47.46">Proxy</tspan></text></g></g><g class="subtechniques"><g class="subtechnique T1090.004" transform="translate(15, 263.76)"><rect class="cell" height="87.92" width="225.41860465116278" fill="#6baed6" stroke="#6B7279"/><rect class="cell" height="87.92" width="3" transform="translate(-3, 0)" fill="#6B7279" stroke="#6B7279"/><text font-size="12" fill="black"><tspan x="4" y="47.46">Domain Fronting</tspan></text></g><g class="subtechnique T1090.002" transform="translate(15, 351.68)"><rect class="cell" height="87.92" width="225.41860465116278" fill="#6baed6" stroke="#6B7279"/><rect class="cell" height="87.92" width="3" transform="translate(-3, 0)" fill="#6B7279" stroke="#6B7279"/><text font-size="12" fill="black"><tspan x="4" y="47.46">External Proxy</tspan></text></g><g class="subtechnique T1090.001" transform="translate(15, 439.6)"><rect class="cell" height="87.92" width="225.41860465116278" fill="#6baed6" stroke="#6B7279"/><rect class="cell" height="87.92" width="3" transform="translate(-3, 0)" fill="#6B7279" stroke="#6B7279"/><text font-size="12" fill="black"><tspan x="4" y="47.46">Internal Proxy</tspan></text></g><g class="subtechnique T1090.003" transform="translate(15, 527.52)"><rect class="cell" height="87.92" width="225.41860465116278" fill="#6baed6" stroke="#6B7279"/><rect class="cell" height="87.92" width="3" transform="translate(-3, 0)" fill="#6B7279" stroke="#6B7279"/><text font-size="12" fill="black"><tspan x="4" y="47.46">Multi-hop Proxy</tspan></text></g></g><g class="tactic-label"><text font-size="12" fill="black" font-weight="bold"><tspan text-anchor="middle" x="120.20930232558139" y="47.46">Command and Control</tspan></text></g></g><g class="tactic impact" transform="translate(3205.581395348837, 0)"><g class="techniques"><g class="technique T1485" transform="translate(0, 87.92)"><rect class="cell" height="87.92" width="240.41860465116278" fill="#6baed6" stroke="#6B7279"/><polygon class="sidebar" transform="translate(0, 87.92)" points="0,0 12,0 12,0" fill="#6B7279" visibility="hidden"/><text font-size="12" fill="black"><tspan x="4" y="47.46">Data Destruction</tspan></text></g><g class="technique T1486" transform="translate(0, 175.84)"><rect class="cell" height="87.92" width="240.41860465116278" fill="#6baed6" stroke="#6B7279"/><polygon class="sidebar" transform="translate(0, 87.92)" points="0,0 12,0 12,0" fill="#6B7279" visibility="hidden"/><text font-size="12" fill="black"><tspan x="4" y="47.46">Data Encrypted for Impact</tspan></text></g><g class="technique T1561" transform="translate(0, 263.76)"><rect class="cell" height="87.92" width="240.41860465116278" fill="#6baed6" stroke="#6B7279"/><polygon class="sidebar" transform="translate(0, 87.92)" points="0,0 12,0 12,12" fill="#6B7279" visibility="visible"/><text font-size="12" fill="black"><tspan x="4" y="47.46">Disk Wipe</tspan></text></g><g class="technique T1490" transform="translate(0, 527.52)"><rect class="cell" height="87.92" width="240.41860465116278" fill="#6baed6" stroke="#6B7279"/><polygon class="sidebar" transform="translate(0, 87.92)" points="0,0 12,0 12,0" fill="#6B7279" visibility="hidden"/><text font-size="12" fill="black"><tspan x="4" y="47.46">Inhibit System Recovery</tspan></text></g></g><g class="subtechniques"><g class="subtechnique T1561.001" transform="translate(15, 351.68)"><rect class="cell" height="87.92" width="225.41860465116278" fill="#6baed6" stroke="#6B7279"/><rect class="cell" height="87.92" width="3" transform="translate(-3, 0)" fill="#6B7279" stroke="#6B7279"/><text font-size="12" fill="black"><tspan x="4" y="47.46">Disk Content Wipe</tspan></text></g><g class="subtechnique T1561.002" transform="translate(15, 439.6)"><rect class="cell" height="87.92" width="225.41860465116278" fill="#6baed6" stroke="#6B7279"/><rect class="cell" height="87.92" width="3" transform="translate(-3, 0)" fill="#6B7279" stroke="#6B7279"/><text font-size="12" fill="black"><tspan x="4" y="47.46">Disk Structure Wipe</tspan></text></g></g><g class="tactic-label"><text font-size="12" fill="black" font-weight="bold"><tspan text-anchor="middle" x="120.20930232558139" y="47.46">Impact</tspan></text></g></g></g></g></g></svg>